<svg id="Layer_1" enable-background="new 0 0 512 512" height="512" viewBox="0 0 512 512" width="512" xmlns="http://www.w3.org/2000/svg"><g clip-rule="evenodd" fill-rule="evenodd"><path d="m365.371 476.582 56.318-11.493c2.934-.599 5.233-2.223 6.778-4.788s1.906-5.357 1.063-8.23c-25.002-85.268-59.108-164.753-91.702-247.679l-5.047-32.443 7.21-66.329 23.183 27.837c2.001 2.403 4.677 3.677 7.803 3.716s5.833-1.168 7.893-3.52l26.527-30.283c3.289-3.754 3.451-9.182.393-13.126l-66.34-85.571c-2.001-2.581-4.799-3.968-8.065-3.997h-150.77c-3.266.029-6.064 1.416-8.065 3.997l-66.341 85.57c-3.058 3.944-2.896 9.372.393 13.126l26.55 30.309c2.061 2.353 4.77 3.56 7.898 3.52s5.805-1.317 7.804-3.723l23.155-27.856 7.209 66.329-5.047 32.443c-32.594 82.926-66.701 162.412-91.702 247.679-.843 2.874-.482 5.665 1.063 8.23s3.844 4.189 6.778 4.788l56.318 11.493-1.832 7.112c-.732 2.842-.312 5.559 1.244 8.048s3.814 4.056 6.69 4.642c101.978 20.822 104.563 20.822 206.541 0 2.875-.587 5.133-2.154 6.689-4.643 1.556-2.488 1.975-5.204 1.243-8.046z" fill="#fc76a8"/><path d="m365.371 476.582 56.318-11.493c2.934-.599 5.233-2.223 6.778-4.788s1.906-5.357 1.063-8.23c-25.002-85.268-59.108-164.753-91.702-247.679l-5.047-32.443 7.21-66.329 23.183 27.837c2.001 2.403 4.677 3.677 7.803 3.716s5.833-1.168 7.893-3.52l26.527-30.283c3.289-3.754 3.451-9.182.393-13.126l-66.34-85.571c-2.001-2.581-4.799-3.968-8.065-3.997l-73.768-.661v511.975c25.612-.21 51.716-5.41 101.654-15.606 2.876-.587 5.133-2.154 6.689-4.643 1.556-2.488 1.975-5.204 1.243-8.046z" fill="#fc5c96"/><path d="m353.761 497.508c1.8-.367 3.632-.741 5.497-1.121 2.877-.588 5.137-2.157 6.692-4.649s1.972-5.211 1.236-8.054l-58.29-225.017c-1.14-4.4-5.632-7.043-10.032-5.903s-7.043 5.632-5.903 10.032z" fill="#fc76a8"/><path d="m152.737 496.385c1.865.381 3.697.755 5.498 1.122l59.508-229.874c1.14-4.4-1.503-8.892-5.903-10.032s-8.893 1.503-10.032 5.903l-56.999 220.181c-.736 2.843-.318 5.562 1.236 8.053 1.556 2.491 3.815 4.06 6.692 4.647z" fill="#fd91ba"/><path d="m224.508 31.65c16.202 2.401 27.239 9.061 33.11 19.978 5.871-10.917 16.908-17.577 33.11-19.978 4.536-9.615 11.855-19.996 21.958-31.142l-56.686-.508-53.477.48c10.117 11.156 17.445 21.547 21.985 31.17z" fill="#fd91ba"/><path d="m257.617 51.628c5.871-10.917 16.908-17.577 33.11-19.978 4.536-9.615 11.855-19.996 21.958-31.142l-55.068-.494z" fill="#fc76a8"/><path d="m174.171 204.392h163.657l-5.046-32.443h-153.564z" fill="#ffdc6e"/><path d="m257.617 204.392h80.211l-5.046-32.443h-75.165z" fill="#ffd54f"/></g></svg>