<svg id="Layer_1" enable-background="new 0 0 50 50" height="512" viewBox="0 0 50 50" width="512" xmlns="http://www.w3.org/2000/svg"><g id="_x31_11"><path d="m48.9844322 19.1500797-3.2440948 23.7900257c-.3596153 2.6371651-2.6120148 4.6032677-5.2735863 4.6032677h-30.9360762c-2.6615725 0-4.9139733-1.9661026-5.2735868-4.6032677l-3.2440944-23.7900257c-.1035436-.7593193.3653315-1.4894505 1.1018211-1.7012768 15.2559052-4.3878355 30.5118904-4.3878355 45.7677956 0 .7364883.2118264 1.2053641.9419575 1.1018218 1.7012768z" fill="#fc6559"/><g opacity=".3"><path d="m29.729887 19.3138924c-.0214844 0-.0439453-.0009766-.0654297-.0019531-2.9257813-.1904297-5.703125-.2070313-8.7363281-.0351563-.5380859.0166016-1.0234375-.3896484-1.0546875-.9414063s.3896484-1.0234375.9414063-1.0546875c3.1142578-.1787109 5.9707031-.1591797 8.9785156.0351563.5517578.0361328.96875.5117188.9335938 1.0625-.0341798.5292969-.4746095.9355469-.9970704.9355469z" fill="#fff"/></g><g opacity=".3"><path d="m4.4388714 25.2367439-.6640627-4.8691406c-.0683594-.5009766.2490237-.9746094.7392581-1.1025391 1.5986328-.4160156 3.21875-.7871094 4.8154297-1.1025391.5371094-.1044922 1.0664063.2460938 1.1748047.7880859.1064453.5419922-.2460938 1.0673828-.7880859 1.1748047-1.2714844.2509766-2.5595703.5380859-3.8388672.8564453l.5439453 3.9853516c.0742188.546875-.3085938 1.0507813-.8564453 1.1259766-.5703303.0728074-1.0539652-.3276729-1.1259767-.8564453z" fill="#fff"/></g><path d="m48.9878883 19.153038-3.25 23.7900391c-.3598633 2.6300049-2.6098633 4.5999756-5.2695313 4.5999756h-30.9404277c-1.9799809 0-3.7397466-1.0899658-4.6499028-2.7399902.7700195.4399414 1.6499023.6799316 2.590332.6799316h30.9394512c2.6601563 0 4.9101563-1.9699707 5.2705078-4.6098633l3.2294922-23.6900635c.3203125.0899658.6503906.1800537.9702148.2700195.7402349.209961 1.2099615.9399415 1.1098638 1.6999512z" fill="#f05543"/><g><path d="m47.3067741 31.4141769-.2691574 1.9936333h-44.0789408l-.2691598-1.9936333z" fill="#e4e3ff"/></g><g><path d="m46.6788979 36.0893097-.2788964 1.9936333h-42.8037138l-.2788942-1.9936333z" fill="#e4e3ff"/></g><g><path d="m46.0407982 40.7443619-.2691574 1.9936332h-41.5474754l-.2686734-1.9936332z" fill="#e4e3ff"/></g><g><path d="m36.0777321 25.7749863c-.5527344 0-1-.4472656-1-1 0-11.7734365-4.2392559-20.3183594-10.0790997-20.3183594s-10.0791016 8.5449219-10.0791016 20.3183594c0 .5527344-.4472656 1-1 1s-1-.4472656-1-1c0-13.140624 4.9667969-22.3183594 12.0791016-22.3183594s12.0790997 9.1777344 12.0790997 22.3183594c0 .5527343-.4472656 1-1 1z" fill="#474646"/></g><path d="m37.9058151 25.0550289c0 1.0015965-.8184853 1.8200817-1.8323097 1.8200817-1.0016708 0-1.8200798-.8184853-1.8200798-1.8200817s.818409-1.8200817 1.8200798-1.8200817c1.0138245 0 1.8323097.8184853 1.8323097 1.8200817z" fill="#474646"/><path d="m37.6258812 24.0873299c-.2797852-.1799316-.6201172-.2900391-.9897461-.2900391-1 0-1.8203125.8200684-1.8203125 1.8200684 0 .3499756.1000977.6899414.2900391.9699707-.5097656-.3100586-.8500977-.8800049-.8500977-1.5300293 0-1 .8203125-1.8199463 1.8203125-1.8199463.6499024 0 1.2197266.3399658 1.5498047.8499756z" fill="#2d2c2c"/><path d="m15.7455025 25.0550289c0 1.0015965-.8184853 1.8200817-1.8323088 1.8200817-1.0016708 0-1.8200808-.8184853-1.8200808-1.8200817s.8184099-1.8200817 1.8200808-1.8200817c1.0138235 0 1.8323088.8184853 1.8323088 1.8200817z" fill="#474646"/><path d="m15.4662151 24.0873299c-.2802734-.1799316-.6201172-.2900391-.9902344-.2900391-1 0-1.8203125.8200684-1.8203125 1.8200684 0 .3499756.1000977.6899414.2900391.9699707-.5097656-.3100586-.8496094-.8800049-.8496094-1.5300293 0-1 .8198242-1.8199463 1.8198242-1.8199463.6499024 0 1.2202149.3399658 1.550293.8499756z" fill="#2d2c2c"/><g fill="#d0d0f7"><path d="m46.0381813 40.7430038-.2700195 1.9899902h-2.7099609c.3100586-.5599365.5297852-1.1899414.6201172-1.8598633l.0195313-.130127h2.3403319z"/><path d="m46.678318 36.0931015-.2802734 1.9899902h-2.3398438l.2700196-1.9899902z"/><path d="m47.3082008 31.4130478-.2700195 1.9899902h-2.340332l.2705078-1.9899902z"/></g></g></svg>